<svg width="408" height="63" viewBox="0 0 408 63" fill="none" xmlns="http://www.w3.org/2000/svg">
<path d="M49.3 13.8334H57.05L45.6 48.8334H36.9L29.2 25.1334L21.25 48.8334H12.6L1.1 13.8334H9.5L17.4 38.4334L25.65 13.8334H33.15L41.15 38.6334L49.3 13.8334ZM69.6219 42.3334H88.6719V48.8334H61.5719V13.8334H88.0219V20.3334H69.6219V27.9334H85.8719V34.2334H69.6219V42.3334ZM120.817 30.6334C124.717 31.8834 127.217 34.8834 127.217 39.2834C127.217 45.3334 122.417 48.8334 113.217 48.8334H95.1168V13.8334H112.217C120.967 13.8334 125.467 17.4834 125.467 22.9334C125.467 26.4334 123.667 29.1334 120.817 30.6334ZM111.217 19.9334H103.167V28.1834H111.217C115.167 28.1834 117.317 26.7834 117.317 24.0334C117.317 21.2834 115.167 19.9334 111.217 19.9334ZM112.617 42.7334C116.817 42.7334 119.067 41.4334 119.067 38.4334C119.067 35.4834 116.817 34.0834 112.617 34.0834H103.167V42.7334H112.617Z" fill="url(#paint0_linear_174_276)"/>
<g clip-path="url(#clip0_174_276)">
<path d="M159.104 4.35987C159.347 4.47446 159.574 4.58188 159.792 4.68493C160.088 4.82553 160.368 4.95801 160.649 5.08952L160.65 5.08986C163.887 6.59927 167.123 8.1086 170.362 9.61156C170.419 9.63785 170.49 9.66373 170.554 9.67637C170.586 9.68268 170.61 9.68464 170.627 9.68387C170.633 9.68361 170.637 9.68309 170.639 9.6827C171.278 9.2672 171.907 8.83531 172.546 8.3965C172.68 8.30435 172.815 8.2119 172.95 8.11923C172.599 7.96029 172.25 7.80166 171.901 7.64347C170.664 7.0817 169.439 6.52568 168.207 5.98252C168 5.89096 167.816 5.78369 167.691 5.61529C167.562 5.44247 167.511 5.22796 167.519 4.95558M159.104 4.35987L167.686 4.96083M159.104 4.35987C160.791 3.54952 162.472 2.72541 164.153 1.90164C165.217 1.37995 166.281 0.858398 167.346 0.340571L167.347 0.340282C167.403 0.312766 167.459 0.288328 167.537 0.254454M159.104 4.35987L167.537 0.0728117M167.519 4.95558L167.686 4.96083M167.519 4.95558C167.519 4.95562 167.519 4.95567 167.519 4.95571L167.686 4.96083M167.519 4.95558C167.551 3.92205 167.546 2.88899 167.541 1.85223C167.539 1.45948 167.537 1.06619 167.537 0.672144V0.670961V0.669779V0.668596V0.667414V0.666231V0.665048V0.663866V0.662683V0.6615V0.660317V0.659134V0.657951V0.656768V0.655585V0.654401V0.653218V0.652035V0.650851V0.649668V0.648484V0.6473V0.646116V0.644932V0.643748V0.642564V0.64138V0.640196V0.639011V0.637826V0.636642V0.635457V0.634272V0.633087V0.631902V0.630716V0.629531V0.628345V0.62716V0.625974V0.624788V0.623601V0.622415V0.621229V0.620042V0.618855V0.617668V0.616481V0.615294V0.614106V0.612919V0.611731V0.610543V0.609355V0.608166V0.606978V0.605789V0.6046V0.603411V0.602222V0.601032V0.599843V0.598653V0.597463V0.596272V0.595082V0.593891V0.5927V0.591509V0.590317V0.589126V0.587934V0.586742V0.585549V0.584357V0.583164V0.581971V0.580778V0.579584V0.57839V0.577196V0.576002V0.574807V0.573612V0.572417V0.571222V0.570026V0.56883V0.567634V0.566437V0.565241V0.564044V0.562846V0.561649V0.560451V0.559252V0.558054V0.556855V0.555656V0.554456V0.553257V0.552057V0.550856V0.549655V0.548454V0.547253V0.546051V0.544849V0.543647V0.542444V0.541241V0.540038V0.538834V0.53763V0.536426V0.535221V0.534016V0.53281V0.531605V0.530398V0.529192V0.527985V0.526778V0.52557V0.524362V0.523153V0.521945V0.520735V0.519526V0.518316V0.517106V0.515895V0.514684V0.513472V0.51226V0.511048V0.509835V0.508622V0.507408V0.506194V0.504979V0.503765V0.502549V0.501334V0.500117V0.498901V0.497684V0.496466V0.495248V0.49403V0.492811V0.491592V0.490372V0.489152V0.487931V0.48671V0.485489V0.484266V0.483044V0.481821V0.480597V0.479374V0.478149V0.476924V0.475699V0.474473V0.473246V0.47202V0.470792V0.469564V0.468336V0.467107V0.465878V0.464648V0.463417V0.462186V0.460955V0.459723V0.45849V0.457257V0.456024V0.45479V0.453555V0.45232V0.451084V0.449848V0.448611V0.447373V0.446135V0.444897V0.443658V0.442418V0.441178V0.439937V0.438696V0.437454V0.436212V0.434968V0.433725V0.432481V0.431236V0.42999V0.428744V0.427498V0.426251V0.425003V0.423754V0.422505V0.421256V0.420006V0.418755V0.417503V0.416251V0.414998V0.413745V0.412491V0.411236V0.409981V0.408725V0.407469V0.406212V0.404954V0.403695V0.402436V0.401177V0.399916V0.398655V0.397393V0.396131V0.394868V0.393604V0.39234V0.391075V0.389809V0.388543V0.387275V0.386008V0.384739V0.38347V0.3822V0.380929V0.379658V0.378386V0.377113V0.37584V0.374566V0.373291V0.372015V0.370739V0.369462V0.368184V0.366906V0.365627V0.364347V0.363066V0.361785V0.360503V0.35922V0.357936V0.356652V0.355366V0.354081V0.352794V0.351506V0.350218V0.348929V0.34764V0.346349V0.345058V0.343766V0.342473V0.341179V0.339885V0.33859V0.337294V0.335997V0.334699V0.333401V0.332102V0.330802V0.329501V0.328199V0.326897V0.325594V0.32429V0.322985V0.321679V0.320372V0.319065V0.317757V0.316448V0.315138V0.313827V0.312516V0.311203V0.30989V0.308576V0.307261V0.305945V0.304628V0.303311V0.301992V0.300673V0.299353V0.298032V0.29671V0.295387V0.294063V0.292738V0.291413V0.290087V0.288759V0.287431V0.286102V0.284772V0.283441V0.282109V0.280777V0.279443V0.278109V0.276773V0.275437V0.2741V0.272761V0.271422V0.270082V0.268741V0.267399V0.266056V0.264712V0.263368V0.262022V0.260675V0.259327V0.257979V0.256629V0.255279V0.254454M167.686 4.96083C167.718 3.92405 167.713 2.88643 167.707 1.84859C167.705 1.45646 167.703 1.0643 167.703 0.672144V0.182051C167.652 0.204726 167.607 0.223853 167.569 0.240644C167.558 0.245427 167.547 0.250021 167.537 0.254454M167.537 0.254454V0.253927V0.252575V0.251221V0.249867V0.248511V0.247155V0.245798V0.244439V0.24308V0.241719V0.240358V0.238996V0.237632V0.236268V0.234903V0.233536V0.232169V0.230801V0.229431V0.228061V0.226689V0.225317V0.223943V0.222569V0.221193V0.219817V0.218439V0.21706V0.215681V0.2143V0.212918V0.211535V0.210151V0.208766V0.20738V0.205993V0.204605V0.203216V0.201825V0.200434V0.199042V0.197648V0.196253V0.194858V0.193461V0.192063V0.190664V0.189264V0.187863V0.18646V0.185057V0.183652V0.182247V0.18084V0.179432V0.178023V0.176613V0.175202V0.17379V0.172376V0.170961V0.169546V0.168129V0.166711V0.165292V0.163871V0.16245V0.161027V0.159603V0.158178V0.156752V0.155325V0.153897V0.152467V0.151036V0.149604V0.148171V0.146737V0.145301V0.143865V0.142427V0.140988V0.139547V0.138106V0.136663V0.13522V0.133774V0.132328V0.130881V0.129432V0.127982V0.126531V0.125079V0.123625V0.12217V0.120714V0.119257V0.117798V0.116339V0.114878V0.113416V0.111952V0.110487V0.109021V0.107554V0.106086V0.104616V0.103145V0.101673V0.100199V0.0987243V0.0972482V0.0957708V0.0942921V0.0928122V0.091331V0.0898485V0.0883647V0.0868796V0.0853932V0.0839055V0.0824165V0.0809262V0.0794346V0.0779417V0.0764474V0.0749519V0.073455V0.0728117M167.537 0.0728117C167.584 0.0521367 167.639 0.0283849 167.703 0L167.537 0.0728117ZM158.791 59.1572L158.856 59.2885L158.995 59.2412C159.236 59.1589 159.476 59.0801 159.715 59.0017C160.251 58.8255 160.781 58.6518 161.293 58.4469L161.231 58.2922L161.293 58.4469C163.758 57.4623 166.196 56.3848 168.441 54.9201L168.35 54.7805L168.441 54.9201C169.284 54.3698 170.108 53.7808 170.928 53.194C171.405 52.853 171.881 52.5127 172.359 52.1812L172.359 52.1811C172.428 52.1331 172.516 52.0838 172.6 52.053C172.691 52.0194 172.742 52.0206 172.76 52.0267L172.76 52.0269C173.362 52.2353 173.952 52.47 174.573 52.7172C174.725 52.7776 174.879 52.8387 175.035 52.9004C169.654 57.7478 163.323 60.6054 156.357 62.4505C156.356 62.1515 156.355 61.8571 156.353 61.5662C156.349 60.6832 156.345 59.8323 156.368 58.9816C156.375 58.711 156.344 58.4775 156.232 58.272C156.12 58.0656 155.937 57.9083 155.683 57.7669C152.454 55.9629 149.522 53.7468 146.962 51.057C144.707 48.6878 142.811 46.0496 141.258 43.1483L141.258 43.1483C138.568 38.1243 137.042 32.7449 136.486 27.0855C136.235 24.533 136.155 21.9537 136.166 19.3833C136.173 18.2336 136.313 17.093 136.455 15.9408C136.526 15.3645 136.597 14.7853 136.652 14.2005L136.652 14.2005C136.669 14.0188 136.721 13.9065 136.796 13.8255C136.875 13.7408 136.993 13.6738 137.174 13.6116L137.174 13.6115C144.101 11.2094 150.816 8.28449 157.44 5.15283C157.885 4.94263 158.329 4.73117 158.773 4.51869V59.0803V59.1192L158.79 59.1541L158.791 59.1572ZM175.173 52.7756C175.23 52.7982 175.288 52.8208 175.346 52.8435C175.3 52.8854 175.254 52.9271 175.208 52.9686L175.173 52.7756ZM173.111 8.00913C173.17 8.03593 173.229 8.06274 173.289 8.08956C173.235 8.12626 173.181 8.16295 173.128 8.19963L173.111 8.00913Z" fill="#52C80D" stroke="url(#paint1_linear_174_276)" stroke-width="0.333333"/>
<path d="M186.126 32.3051C184.79 30.9487 182.932 30.0505 180.585 29.5848C181.621 29.2005 182.569 28.6995 183.429 28.0809C184.666 27.215 185.64 26.1034 186.346 24.751C187.095 23.3841 187.461 21.7836 187.461 19.9629C187.461 16.925 186.308 14.546 183.994 12.8776C181.734 11.1876 178.691 10.3646 174.908 10.3646C173.12 10.3646 171.496 10.5291 170.037 10.8618C168.586 11.1927 167.252 11.6533 166.035 12.2454L166.035 12.2453L166.031 12.2474C164.857 12.835 163.785 13.4975 162.814 14.2354L162.528 14.4529L162.72 14.7566L166.282 20.3889L166.5 20.7331L166.835 20.5021C167.401 20.1124 168.053 19.7032 168.791 19.2746C169.544 18.8569 170.382 18.5068 171.307 18.2255L171.307 18.2257L171.32 18.2214C172.223 17.9123 173.231 17.755 174.348 17.755C176.176 17.755 177.367 18.1472 178.038 18.8293L178.044 18.8355L178.05 18.8415C178.767 19.5089 179.147 20.4596 179.147 21.7501C179.147 22.7022 178.939 23.538 178.534 24.2678L178.534 24.2678L178.532 24.2727C178.186 24.9173 177.484 25.4827 176.344 25.9338C175.257 26.3414 173.618 26.5575 171.396 26.5575H168.598H168.206V26.9492V33.2314V33.623H168.598H171.346C173.603 33.623 175.321 33.8212 176.52 34.2005L176.519 34.2007L176.532 34.2043C177.772 34.5516 178.572 35.0726 179.009 35.7242L179.009 35.7243L179.015 35.7316C179.467 36.374 179.706 37.1929 179.706 38.2138C179.706 39.9708 179.176 41.2809 178.156 42.2015L178.156 42.2015L178.152 42.2056C177.18 43.111 175.393 43.617 172.669 43.617C171.248 43.617 169.686 43.406 167.981 42.9789C166.316 42.5535 164.717 41.9332 163.184 41.1175L162.608 40.8112V41.4632V48.3953V48.6487L162.84 48.7526C164.393 49.4508 166.049 49.9828 167.805 50.3493C169.565 50.7165 171.458 50.8991 173.483 50.8991C176.91 50.8991 179.737 50.3892 181.945 49.3451L181.947 49.3439C184.176 48.2691 185.836 46.8117 186.9 44.9629C187.988 43.0938 188.53 41.0034 188.53 38.7012C188.53 36.0557 187.739 33.9087 186.126 32.3051Z" fill="#52C80D" stroke="url(#paint2_linear_174_276)" stroke-width="0.783333"/>
</g>
<path d="M211.65 49.4334C206.1 49.4334 200.5 47.7834 197.4 45.3834L200.15 39.2834C203.1 41.4334 207.5 42.9334 211.7 42.9334C216.5 42.9334 218.45 41.3334 218.45 39.1834C218.45 32.6334 198.1 37.1334 198.1 24.1334C198.1 18.1834 202.9 13.2334 212.85 13.2334C217.25 13.2334 221.75 14.2834 225 16.3334L222.5 22.4834C219.25 20.6334 215.9 19.7334 212.8 19.7334C208 19.7334 206.15 21.5334 206.15 23.7334C206.15 30.1834 226.5 25.7334 226.5 38.5834C226.5 44.4334 221.65 49.4334 211.65 49.4334ZM240.085 42.3334H259.135V48.8334H232.035V13.8334H258.485V20.3334H240.085V27.9334H256.335V34.2334H240.085V42.3334ZM282.232 49.4334C271.382 49.4334 263.282 41.8834 263.282 31.3334C263.282 20.7834 271.382 13.2334 282.282 13.2334C288.332 13.2334 293.382 15.4334 296.682 19.4334L291.482 24.2334C289.132 21.5334 286.182 20.1334 282.682 20.1334C276.132 20.1334 271.482 24.7334 271.482 31.3334C271.482 37.9334 276.132 42.5334 282.682 42.5334C286.182 42.5334 289.132 41.1334 291.482 38.3834L296.682 43.1834C293.382 47.2334 288.332 49.4334 282.232 49.4334ZM317.409 49.4334C307.459 49.4334 301.559 43.7334 301.559 33.4334V13.8334H309.659V33.1334C309.659 39.7834 312.559 42.5334 317.459 42.5334C322.409 42.5334 325.259 39.7834 325.259 33.1334V13.8334H333.259V33.4334C333.259 43.7334 327.359 49.4334 317.409 49.4334ZM372.263 48.8334H363.563L356.813 39.0834H356.413H349.363V48.8334H341.263V13.8334H356.413C365.763 13.8334 371.613 18.6834 371.613 26.5334C371.613 31.7834 368.963 35.6334 364.413 37.5834L372.263 48.8334ZM363.413 26.5334C363.413 22.6834 360.913 20.4334 355.963 20.4334H349.363V32.6334H355.963C360.913 32.6334 363.413 30.3334 363.413 26.5334ZM386.081 42.3334H405.131V48.8334H378.031V13.8334H404.481V20.3334H386.081V27.9334H402.331V34.2334H386.081V42.3334Z" fill="url(#paint3_linear_174_276)"/>
<defs>
<linearGradient id="paint0_linear_174_276" x1="65" y1="0.833374" x2="65" y2="61.8334" gradientUnits="userSpaceOnUse">
<stop stop-color="#87DC40"/>
<stop offset="0.0001" stop-color="#87DC40"/>
<stop offset="1" stop-color="#388908"/>
</linearGradient>
<linearGradient id="paint1_linear_174_276" x1="155.672" y1="0" x2="155.672" y2="62.6667" gradientUnits="userSpaceOnUse">
<stop stop-color="#87DC40"/>
<stop offset="0.0001" stop-color="#87DC40"/>
<stop offset="1" stop-color="#388908"/>
</linearGradient>
<linearGradient id="paint2_linear_174_276" x1="175.569" y1="10.7562" x2="175.569" y2="50.5075" gradientUnits="userSpaceOnUse">
<stop stop-color="#87DC40"/>
<stop offset="0.0001" stop-color="#87DC40"/>
<stop offset="1" stop-color="#388908"/>
</linearGradient>
<linearGradient id="paint3_linear_174_276" x1="302" y1="0.833374" x2="302" y2="61.8334" gradientUnits="userSpaceOnUse">
<stop stop-color="#87DC40"/>
<stop offset="0.0001" stop-color="#87DC40"/>
<stop offset="1" stop-color="#388908"/>
</linearGradient>
<clipPath id="clip0_174_276">
<rect width="54" height="62.6667" fill="white" transform="translate(136)"/>
</clipPath>
</defs>
</svg>
