<svg width="47" height="24" viewBox="0 0 47 24" fill="none" xmlns="http://www.w3.org/2000/svg">
<g id="Layer_1" clip-path="url(#clip0_2048_20371)">
<g id="Group">
<path id="Vector" d="M17.5391 4.63485C19.2556 2.97672 21.541 2.06255 23.9772 2.06255C26.4134 2.06255 28.6997 2.97672 30.4153 4.63485C30.6136 4.82644 30.8694 4.92175 31.1252 4.92175C31.381 4.92175 31.6591 4.81769 31.8594 4.61054C32.2514 4.205 32.2407 3.55925 31.8361 3.16733C29.7355 1.13866 26.9443 0.0212402 23.9772 0.0212402C21.0101 0.0212402 18.2189 1.13866 16.1193 3.16733C15.7137 3.55828 15.703 4.20598 16.095 4.61054C16.4869 5.01511 17.1336 5.02775 17.5382 4.63485H17.5391Z" fill="white"/>
<path id="Vector_2" d="M29.0821 8.18906C29.3495 8.18906 29.616 8.085 29.8163 7.87786C30.2083 7.47232 30.1976 6.82657 29.792 6.43464C28.237 4.93308 26.1713 4.10547 23.9773 4.10547C21.7833 4.10547 19.7177 4.93211 18.1636 6.43464C17.7581 6.82657 17.7474 7.47329 18.1393 7.87786C18.5293 8.2834 19.1789 8.29507 19.5816 7.90217C20.7535 6.77016 22.3134 6.14678 23.9773 6.14678C25.6413 6.14678 27.2003 6.76919 28.3741 7.90217C28.5715 8.09376 28.8273 8.18906 29.083 8.18906H29.0821Z" fill="white"/>
<path id="Vector_3" d="M20.7156 9.49749C20.311 9.88941 20.3003 10.5361 20.6922 10.9407C21.0851 11.3462 21.7309 11.3569 22.1355 10.965C23.1148 10.0178 24.841 10.0178 25.8203 10.965C26.0187 11.1566 26.2745 11.2519 26.5303 11.2519C26.786 11.2519 27.0632 11.1478 27.2645 10.9407C27.6564 10.5352 27.6457 9.88941 27.2412 9.49749C26.3669 8.65432 25.2086 8.18945 23.9784 8.18945C22.7481 8.18945 21.5889 8.65432 20.7166 9.49749H20.7156Z" fill="white"/>
</g>
<g id="Vector_4" filter="url(#filter0_d_2048_20371)">
<path d="M42.3616 13.7847H5.59276C3.03076 13.7847 0.953857 15.8616 0.953857 18.4236V18.4245C0.953857 20.9865 3.03076 23.0634 5.59276 23.0634H42.3616C44.9236 23.0634 47.0005 20.9865 47.0005 18.4245V18.4236C47.0005 15.8616 44.9236 13.7847 42.3616 13.7847Z" fill="white"/>
<path d="M5.59276 14.4173H42.3616C44.5742 14.4173 46.3679 16.211 46.3679 18.4236V18.4245C46.3679 20.6371 44.5742 22.4308 42.3616 22.4308H5.59276C3.38016 22.4308 1.5865 20.6371 1.5865 18.4245V18.4236C1.5865 16.211 3.38016 14.4173 5.59276 14.4173Z" stroke="white" stroke-width="1.26528"/>
</g>
<g id="Group_2">
<path id="Vector_5" d="M41.1695 19.3977C41.7071 19.3977 42.143 18.9618 42.143 18.4242C42.143 17.8865 41.7071 17.4507 41.1695 17.4507C40.6318 17.4507 40.196 17.8865 40.196 18.4242C40.196 18.9618 40.6318 19.3977 41.1695 19.3977Z" fill="#FE410A"/>
<path id="Vector_6" d="M37.2776 19.3977C37.8152 19.3977 38.2511 18.9618 38.2511 18.4242C38.2511 17.8865 37.8152 17.4507 37.2776 17.4507C36.7399 17.4507 36.3041 17.8865 36.3041 18.4242C36.3041 18.9618 36.7399 19.3977 37.2776 19.3977Z" fill="#FE410A"/>
<path id="Vector_7" d="M33.3845 19.3977C33.9221 19.3977 34.358 18.9618 34.358 18.4242C34.358 17.8865 33.9221 17.4507 33.3845 17.4507C32.8469 17.4507 32.411 17.8865 32.411 18.4242C32.411 18.9618 32.8469 19.3977 33.3845 19.3977Z" fill="#FE410A"/>
</g>
</g>
<defs>
<filter id="filter0_d_2048_20371" x="-14.2295" y="-1.39869" width="76.4134" height="39.6455" filterUnits="userSpaceOnUse" color-interpolation-filters="sRGB">
<feFlood flood-opacity="0" result="BackgroundImageFix"/>
<feColorMatrix in="SourceAlpha" type="matrix" values="0 0 0 0 0 0 0 0 0 0 0 0 0 0 0 0 0 0 127 0" result="hardAlpha"/>
<feOffset/>
<feGaussianBlur stdDeviation="7.59168"/>
<feComposite in2="hardAlpha" operator="out"/>
<feColorMatrix type="matrix" values="0 0 0 0 0.996078 0 0 0 0 0.376471 0 0 0 0 0.054902 0 0 0 0.3 0"/>
<feBlend mode="normal" in2="BackgroundImageFix" result="effect1_dropShadow_2048_20371"/>
<feBlend mode="normal" in="SourceGraphic" in2="effect1_dropShadow_2048_20371" result="shape"/>
</filter>
<clipPath id="clip0_2048_20371">
<rect width="46.0467" height="23.0428" fill="white" transform="translate(0.953308 0.0212402)"/>
</clipPath>
</defs>
</svg>
